<svg width="600" height="236" viewBox="0 0 600 236" fill="none" xmlns="http://www.w3.org/2000/svg">
<rect width="600" height="235.767" fill="url(#paint0_linear_161_17)"/>
<rect x="53.4044" y="27.8096" width="492.945" height="153.568" rx="30" fill="#F5F2FF"/>
<path d="M253.24 102.094C251.86 102.094 250.74 103.213 250.74 104.594C250.74 105.975 251.86 107.094 253.24 107.094L253.24 102.094ZM348.527 106.362C349.504 105.385 349.504 103.803 348.527 102.826L332.618 86.9163C331.641 85.94 330.058 85.94 329.082 86.9163C328.106 87.8926 328.106 89.4756 329.082 90.4519L343.224 104.594L329.082 118.736C328.106 119.712 328.106 121.295 329.082 122.272C330.058 123.248 331.641 123.248 332.617 122.272L348.527 106.362ZM253.24 107.094L346.76 107.094L346.76 102.094L253.24 102.094L253.24 107.094Z" fill="url(#paint1_linear_161_17)"/>
<path d="M162.1 212.562H159.033L159.053 210.453H162.1C162.926 210.453 163.62 210.27 164.18 209.906C164.74 209.535 165.163 209.004 165.449 208.314C165.736 207.617 165.879 206.784 165.879 205.814V205.082C165.879 204.333 165.798 203.672 165.635 203.099C165.472 202.526 165.231 202.044 164.912 201.654C164.6 201.263 164.212 200.967 163.75 200.765C163.288 200.563 162.757 200.462 162.158 200.462H158.975V198.343H162.158C163.109 198.343 163.975 198.503 164.756 198.822C165.544 199.141 166.224 199.6 166.797 200.199C167.376 200.791 167.819 201.501 168.125 202.328C168.438 203.154 168.594 204.079 168.594 205.101V205.814C168.594 206.83 168.438 207.754 168.125 208.587C167.819 209.414 167.376 210.124 166.797 210.716C166.224 211.309 165.54 211.764 164.746 212.083C163.952 212.403 163.07 212.562 162.1 212.562ZM160.537 198.343V212.562H157.852V198.343H160.537ZM173.262 204.154V212.562H170.684V201.996H173.125L173.262 204.154ZM176.475 201.927L176.436 204.33C176.292 204.304 176.13 204.284 175.947 204.271C175.771 204.258 175.605 204.251 175.449 204.251C175.052 204.251 174.704 204.307 174.404 204.417C174.105 204.522 173.854 204.675 173.652 204.876C173.457 205.078 173.307 205.326 173.203 205.619C173.099 205.905 173.04 206.231 173.027 206.595L172.471 206.527C172.471 205.856 172.539 205.235 172.676 204.662C172.812 204.089 173.011 203.587 173.271 203.158C173.532 202.728 173.857 202.396 174.248 202.162C174.645 201.921 175.101 201.8 175.615 201.8C175.758 201.8 175.911 201.813 176.074 201.839C176.243 201.859 176.377 201.888 176.475 201.927ZM183.379 210.316V205.443C183.379 205.085 183.317 204.776 183.193 204.515C183.07 204.255 182.881 204.053 182.627 203.91C182.373 203.766 182.051 203.695 181.66 203.695C181.315 203.695 181.012 203.753 180.752 203.871C180.498 203.988 180.303 204.154 180.166 204.369C180.029 204.577 179.961 204.818 179.961 205.091H177.373C177.373 204.655 177.477 204.242 177.686 203.851C177.894 203.454 178.19 203.102 178.574 202.796C178.965 202.484 179.43 202.24 179.971 202.064C180.518 201.888 181.13 201.8 181.807 201.8C182.607 201.8 183.32 201.937 183.945 202.21C184.577 202.477 185.072 202.881 185.43 203.421C185.794 203.962 185.977 204.642 185.977 205.462V210.072C185.977 210.599 186.009 211.052 186.074 211.429C186.146 211.8 186.25 212.123 186.387 212.396V212.562H183.76C183.636 212.295 183.542 211.957 183.477 211.546C183.411 211.13 183.379 210.72 183.379 210.316ZM183.74 206.126L183.76 207.66H182.129C181.725 207.66 181.37 207.702 181.064 207.787C180.758 207.865 180.508 207.982 180.312 208.138C180.117 208.288 179.971 208.47 179.873 208.685C179.775 208.893 179.727 209.131 179.727 209.398C179.727 209.658 179.785 209.893 179.902 210.101C180.026 210.309 180.202 210.475 180.43 210.599C180.664 210.716 180.938 210.775 181.25 210.775C181.706 210.775 182.103 210.684 182.441 210.501C182.78 210.313 183.044 210.085 183.232 209.818C183.421 209.551 183.522 209.297 183.535 209.056L184.277 210.169C184.186 210.436 184.049 210.72 183.867 211.019C183.685 211.319 183.451 211.598 183.164 211.859C182.878 212.119 182.533 212.334 182.129 212.503C181.725 212.673 181.257 212.757 180.723 212.757C180.039 212.757 179.427 212.621 178.887 212.347C178.346 212.074 177.92 211.699 177.607 211.224C177.295 210.749 177.139 210.208 177.139 209.603C177.139 209.043 177.243 208.548 177.451 208.119C177.66 207.689 177.969 207.328 178.379 207.035C178.789 206.735 179.297 206.511 179.902 206.361C180.514 206.205 181.214 206.126 182.002 206.126H183.74ZM195.02 201.996H197.363V212.24C197.363 213.197 197.155 214.007 196.738 214.671C196.328 215.342 195.752 215.85 195.01 216.195C194.268 216.546 193.405 216.722 192.422 216.722C191.999 216.722 191.54 216.664 191.045 216.546C190.557 216.429 190.085 216.244 189.629 215.99C189.18 215.742 188.805 215.42 188.506 215.023L189.668 213.5C190.02 213.91 190.417 214.219 190.859 214.427C191.302 214.642 191.781 214.75 192.295 214.75C192.816 214.75 193.258 214.652 193.623 214.457C193.994 214.268 194.277 213.988 194.473 213.617C194.674 213.252 194.775 212.803 194.775 212.269V204.408L195.02 201.996ZM187.881 207.406V207.201C187.881 206.393 187.979 205.661 188.174 205.003C188.369 204.339 188.649 203.77 189.014 203.294C189.385 202.819 189.831 202.451 190.352 202.191C190.879 201.931 191.471 201.8 192.129 201.8C192.826 201.8 193.411 201.927 193.887 202.181C194.368 202.435 194.766 202.796 195.078 203.265C195.397 203.734 195.645 204.291 195.82 204.935C196.003 205.573 196.143 206.276 196.24 207.044V207.601C196.149 208.35 196.003 209.037 195.801 209.662C195.605 210.287 195.345 210.833 195.02 211.302C194.694 211.764 194.29 212.123 193.809 212.376C193.327 212.63 192.76 212.757 192.109 212.757C191.458 212.757 190.872 212.624 190.352 212.357C189.831 212.09 189.385 211.716 189.014 211.234C188.649 210.752 188.369 210.186 188.174 209.535C187.979 208.884 187.881 208.174 187.881 207.406ZM190.459 207.201V207.406C190.459 207.861 190.505 208.288 190.596 208.685C190.687 209.082 190.827 209.434 191.016 209.74C191.204 210.039 191.442 210.274 191.729 210.443C192.015 210.612 192.357 210.697 192.754 210.697C193.288 210.697 193.724 210.586 194.062 210.365C194.408 210.137 194.668 209.828 194.844 209.437C195.026 209.04 195.143 208.594 195.195 208.099V206.566C195.163 206.175 195.091 205.814 194.98 205.482C194.876 205.15 194.73 204.863 194.541 204.623C194.352 204.382 194.111 204.193 193.818 204.056C193.525 203.919 193.177 203.851 192.773 203.851C192.383 203.851 192.041 203.939 191.748 204.115C191.455 204.284 191.214 204.522 191.025 204.828C190.837 205.134 190.693 205.488 190.596 205.892C190.505 206.296 190.459 206.732 190.459 207.201ZM210.332 207.376H206.67V205.267H210.332C210.931 205.267 211.416 205.169 211.787 204.974C212.165 204.772 212.441 204.499 212.617 204.154C212.793 203.802 212.881 203.402 212.881 202.953C212.881 202.516 212.793 202.11 212.617 201.732C212.441 201.354 212.165 201.048 211.787 200.814C211.416 200.58 210.931 200.462 210.332 200.462H207.549V212.562H204.863V198.343H210.332C211.439 198.343 212.383 198.542 213.164 198.939C213.952 199.33 214.551 199.873 214.961 200.57C215.378 201.26 215.586 202.048 215.586 202.933C215.586 203.851 215.378 204.642 214.961 205.306C214.551 205.97 213.952 206.481 213.164 206.839C212.383 207.197 211.439 207.376 210.332 207.376ZM220.078 204.154V212.562H217.5V201.996H219.941L220.078 204.154ZM223.291 201.927L223.252 204.33C223.109 204.304 222.946 204.284 222.764 204.271C222.588 204.258 222.422 204.251 222.266 204.251C221.868 204.251 221.52 204.307 221.221 204.417C220.921 204.522 220.671 204.675 220.469 204.876C220.273 205.078 220.124 205.326 220.02 205.619C219.915 205.905 219.857 206.231 219.844 206.595L219.287 206.527C219.287 205.856 219.355 205.235 219.492 204.662C219.629 204.089 219.827 203.587 220.088 203.158C220.348 202.728 220.674 202.396 221.064 202.162C221.462 201.921 221.917 201.8 222.432 201.8C222.575 201.8 222.728 201.813 222.891 201.839C223.06 201.859 223.193 201.888 223.291 201.927ZM223.975 207.386V207.181C223.975 206.406 224.085 205.694 224.307 205.042C224.528 204.385 224.85 203.815 225.273 203.333C225.697 202.852 226.214 202.477 226.826 202.21C227.438 201.937 228.135 201.8 228.916 201.8C229.71 201.8 230.413 201.937 231.025 202.21C231.644 202.477 232.165 202.852 232.588 203.333C233.011 203.815 233.333 204.385 233.555 205.042C233.776 205.694 233.887 206.406 233.887 207.181V207.386C233.887 208.154 233.776 208.867 233.555 209.525C233.333 210.176 233.011 210.746 232.588 211.234C232.165 211.716 231.647 212.09 231.035 212.357C230.423 212.624 229.723 212.757 228.936 212.757C228.154 212.757 227.454 212.624 226.836 212.357C226.217 212.09 225.697 211.716 225.273 211.234C224.85 210.746 224.528 210.176 224.307 209.525C224.085 208.867 223.975 208.154 223.975 207.386ZM226.553 207.181V207.386C226.553 207.848 226.598 208.281 226.689 208.685C226.781 209.089 226.921 209.444 227.109 209.75C227.298 210.056 227.542 210.296 227.842 210.472C228.148 210.641 228.512 210.726 228.936 210.726C229.352 210.726 229.71 210.641 230.01 210.472C230.309 210.296 230.553 210.056 230.742 209.75C230.938 209.444 231.081 209.089 231.172 208.685C231.263 208.281 231.309 207.848 231.309 207.386V207.181C231.309 206.725 231.263 206.299 231.172 205.902C231.081 205.498 230.938 205.143 230.742 204.837C230.553 204.525 230.306 204.281 230 204.105C229.701 203.923 229.339 203.832 228.916 203.832C228.499 203.832 228.141 203.923 227.842 204.105C227.542 204.281 227.298 204.525 227.109 204.837C226.921 205.143 226.781 205.498 226.689 205.902C226.598 206.299 226.553 206.725 226.553 207.181ZM238.33 204.164V212.562H235.752V201.996H238.184L238.33 204.164ZM237.949 206.898H237.158C237.158 206.162 237.246 205.485 237.422 204.867C237.604 204.248 237.871 203.711 238.223 203.255C238.574 202.793 239.007 202.435 239.521 202.181C240.042 201.927 240.645 201.8 241.328 201.8C241.803 201.8 242.24 201.872 242.637 202.015C243.034 202.152 243.376 202.37 243.662 202.669C243.955 202.962 244.18 203.347 244.336 203.822C244.492 204.291 244.57 204.854 244.57 205.511V212.562H241.992V205.775C241.992 205.28 241.921 204.893 241.777 204.613C241.641 204.333 241.442 204.138 241.182 204.027C240.921 203.91 240.609 203.851 240.244 203.851C239.84 203.851 239.492 203.932 239.199 204.095C238.913 204.251 238.675 204.47 238.486 204.75C238.304 205.029 238.167 205.352 238.076 205.716C237.992 206.081 237.949 206.475 237.949 206.898ZM244.375 206.419L243.311 206.615C243.317 205.951 243.408 205.329 243.584 204.75C243.76 204.164 244.017 203.653 244.355 203.216C244.701 202.774 245.127 202.429 245.635 202.181C246.149 201.927 246.742 201.8 247.412 201.8C247.933 201.8 248.402 201.875 248.818 202.025C249.242 202.168 249.603 202.399 249.902 202.718C250.202 203.031 250.43 203.438 250.586 203.939C250.749 204.44 250.83 205.052 250.83 205.775V212.562H248.232V205.765C248.232 205.251 248.161 204.857 248.018 204.583C247.881 204.31 247.682 204.121 247.422 204.017C247.161 203.906 246.855 203.851 246.504 203.851C246.146 203.851 245.833 203.919 245.566 204.056C245.306 204.186 245.085 204.369 244.902 204.603C244.727 204.837 244.593 205.111 244.502 205.423C244.417 205.729 244.375 206.061 244.375 206.419ZM255.723 204.027V216.625H253.135V201.996H255.527L255.723 204.027ZM262.51 207.171V207.376C262.51 208.145 262.419 208.858 262.236 209.515C262.061 210.166 261.8 210.736 261.455 211.224C261.11 211.706 260.68 212.083 260.166 212.357C259.658 212.624 259.072 212.757 258.408 212.757C257.757 212.757 257.191 212.634 256.709 212.386C256.227 212.132 255.82 211.774 255.488 211.312C255.156 210.85 254.889 210.313 254.688 209.701C254.492 209.082 254.346 208.408 254.248 207.679V207.025C254.346 206.25 254.492 205.547 254.688 204.916C254.889 204.278 255.156 203.727 255.488 203.265C255.82 202.796 256.224 202.435 256.699 202.181C257.181 201.927 257.744 201.8 258.389 201.8C259.059 201.8 259.648 201.927 260.156 202.181C260.671 202.435 261.104 202.8 261.455 203.275C261.807 203.75 262.07 204.317 262.246 204.974C262.422 205.632 262.51 206.364 262.51 207.171ZM259.922 207.376V207.171C259.922 206.703 259.88 206.27 259.795 205.873C259.71 205.469 259.58 205.117 259.404 204.818C259.229 204.512 259.001 204.274 258.721 204.105C258.441 203.936 258.102 203.851 257.705 203.851C257.308 203.851 256.966 203.916 256.68 204.046C256.393 204.177 256.159 204.362 255.977 204.603C255.794 204.844 255.651 205.13 255.547 205.462C255.449 205.788 255.384 206.149 255.352 206.546V208.167C255.41 208.649 255.524 209.082 255.693 209.466C255.863 209.85 256.11 210.156 256.436 210.384C256.768 210.612 257.197 210.726 257.725 210.726C258.122 210.726 258.46 210.638 258.74 210.462C259.02 210.287 259.248 210.046 259.424 209.74C259.6 209.427 259.727 209.069 259.805 208.666C259.883 208.262 259.922 207.832 259.922 207.376ZM269.395 201.996V203.851H263.34V201.996H269.395ZM264.961 199.398H267.549V209.515C267.549 209.828 267.591 210.069 267.676 210.238C267.76 210.407 267.887 210.521 268.057 210.58C268.226 210.638 268.428 210.667 268.662 210.667C268.831 210.667 268.988 210.658 269.131 210.638C269.274 210.619 269.395 210.599 269.492 210.58L269.502 212.513C269.287 212.585 269.043 212.643 268.77 212.689C268.503 212.735 268.2 212.757 267.861 212.757C267.282 212.757 266.774 212.66 266.338 212.464C265.902 212.263 265.563 211.94 265.322 211.498C265.081 211.048 264.961 210.456 264.961 209.72V199.398ZM276.758 206.224H273.125L273.105 204.33H276.221C276.755 204.33 277.201 204.255 277.559 204.105C277.917 203.955 278.187 203.737 278.369 203.451C278.558 203.164 278.652 202.816 278.652 202.406C278.652 201.95 278.564 201.579 278.389 201.292C278.219 201.006 277.952 200.798 277.588 200.667C277.223 200.531 276.761 200.462 276.201 200.462H273.994V212.562H271.309V198.343H276.201C277.008 198.343 277.728 198.421 278.359 198.578C278.997 198.727 279.538 198.962 279.98 199.281C280.423 199.6 280.758 200 280.986 200.482C281.221 200.964 281.338 201.537 281.338 202.201C281.338 202.787 281.201 203.327 280.928 203.822C280.661 204.31 280.247 204.707 279.688 205.013C279.134 205.319 278.431 205.495 277.578 205.541L276.758 206.224ZM276.641 212.562H272.334L273.457 210.453H276.641C277.174 210.453 277.614 210.365 277.959 210.189C278.311 210.013 278.571 209.772 278.74 209.466C278.916 209.154 279.004 208.796 279.004 208.392C279.004 207.949 278.926 207.565 278.77 207.24C278.62 206.914 278.379 206.664 278.047 206.488C277.721 206.312 277.292 206.224 276.758 206.224H273.965L273.984 204.33H277.539L278.154 205.062C278.975 205.069 279.642 205.231 280.156 205.55C280.677 205.869 281.061 206.279 281.309 206.781C281.556 207.282 281.68 207.822 281.68 208.402C281.68 209.313 281.481 210.078 281.084 210.697C280.693 211.315 280.12 211.781 279.365 212.093C278.617 212.406 277.708 212.562 276.641 212.562ZM283.35 207.386V207.181C283.35 206.406 283.46 205.694 283.682 205.042C283.903 204.385 284.225 203.815 284.648 203.333C285.072 202.852 285.589 202.477 286.201 202.21C286.813 201.937 287.51 201.8 288.291 201.8C289.085 201.8 289.788 201.937 290.4 202.21C291.019 202.477 291.54 202.852 291.963 203.333C292.386 203.815 292.708 204.385 292.93 205.042C293.151 205.694 293.262 206.406 293.262 207.181V207.386C293.262 208.154 293.151 208.867 292.93 209.525C292.708 210.176 292.386 210.746 291.963 211.234C291.54 211.716 291.022 212.09 290.41 212.357C289.798 212.624 289.098 212.757 288.311 212.757C287.529 212.757 286.829 212.624 286.211 212.357C285.592 212.09 285.072 211.716 284.648 211.234C284.225 210.746 283.903 210.176 283.682 209.525C283.46 208.867 283.35 208.154 283.35 207.386ZM285.928 207.181V207.386C285.928 207.848 285.973 208.281 286.064 208.685C286.156 209.089 286.296 209.444 286.484 209.75C286.673 210.056 286.917 210.296 287.217 210.472C287.523 210.641 287.887 210.726 288.311 210.726C288.727 210.726 289.085 210.641 289.385 210.472C289.684 210.296 289.928 210.056 290.117 209.75C290.312 209.444 290.456 209.089 290.547 208.685C290.638 208.281 290.684 207.848 290.684 207.386V207.181C290.684 206.725 290.638 206.299 290.547 205.902C290.456 205.498 290.312 205.143 290.117 204.837C289.928 204.525 289.681 204.281 289.375 204.105C289.076 203.923 288.714 203.832 288.291 203.832C287.874 203.832 287.516 203.923 287.217 204.105C286.917 204.281 286.673 204.525 286.484 204.837C286.296 205.143 286.156 205.498 286.064 205.902C285.973 206.299 285.928 206.725 285.928 207.181ZM296.943 201.996L298.828 205.355L300.742 201.996H303.545L300.439 207.171L303.672 212.562H300.869L298.848 209.037L296.816 212.562H294.014L297.236 207.171L294.15 201.996H296.943ZM315.02 201.996V203.851H308.965V201.996H315.02ZM310.586 199.398H313.174V209.515C313.174 209.828 313.216 210.069 313.301 210.238C313.385 210.407 313.512 210.521 313.682 210.58C313.851 210.638 314.053 210.667 314.287 210.667C314.456 210.667 314.613 210.658 314.756 210.638C314.899 210.619 315.02 210.599 315.117 210.58L315.127 212.513C314.912 212.585 314.668 212.643 314.395 212.689C314.128 212.735 313.825 212.757 313.486 212.757C312.907 212.757 312.399 212.66 311.963 212.464C311.527 212.263 311.188 211.94 310.947 211.498C310.706 211.048 310.586 210.456 310.586 209.72V199.398ZM316.025 207.386V207.181C316.025 206.406 316.136 205.694 316.357 205.042C316.579 204.385 316.901 203.815 317.324 203.333C317.747 202.852 318.265 202.477 318.877 202.21C319.489 201.937 320.186 201.8 320.967 201.8C321.761 201.8 322.464 201.937 323.076 202.21C323.695 202.477 324.215 202.852 324.639 203.333C325.062 203.815 325.384 204.385 325.605 205.042C325.827 205.694 325.938 206.406 325.938 207.181V207.386C325.938 208.154 325.827 208.867 325.605 209.525C325.384 210.176 325.062 210.746 324.639 211.234C324.215 211.716 323.698 212.09 323.086 212.357C322.474 212.624 321.774 212.757 320.986 212.757C320.205 212.757 319.505 212.624 318.887 212.357C318.268 212.09 317.747 211.716 317.324 211.234C316.901 210.746 316.579 210.176 316.357 209.525C316.136 208.867 316.025 208.154 316.025 207.386ZM318.604 207.181V207.386C318.604 207.848 318.649 208.281 318.74 208.685C318.831 209.089 318.971 209.444 319.16 209.75C319.349 210.056 319.593 210.296 319.893 210.472C320.199 210.641 320.563 210.726 320.986 210.726C321.403 210.726 321.761 210.641 322.061 210.472C322.36 210.296 322.604 210.056 322.793 209.75C322.988 209.444 323.132 209.089 323.223 208.685C323.314 208.281 323.359 207.848 323.359 207.386V207.181C323.359 206.725 323.314 206.299 323.223 205.902C323.132 205.498 322.988 205.143 322.793 204.837C322.604 204.525 322.357 204.281 322.051 204.105C321.751 203.923 321.39 203.832 320.967 203.832C320.55 203.832 320.192 203.923 319.893 204.105C319.593 204.281 319.349 204.525 319.16 204.837C318.971 205.143 318.831 205.498 318.74 205.902C318.649 206.299 318.604 206.725 318.604 207.181ZM338.643 200.501L334.59 212.562H331.748L337.061 198.343H338.877L338.643 200.501ZM342.031 212.562L337.959 200.501L337.715 198.343H339.541L344.883 212.562H342.031ZM341.846 207.279V209.398H334.219V207.279H341.846ZM348.477 204.027V216.625H345.889V201.996H348.281L348.477 204.027ZM355.264 207.171V207.376C355.264 208.145 355.173 208.858 354.99 209.515C354.814 210.166 354.554 210.736 354.209 211.224C353.864 211.706 353.434 212.083 352.92 212.357C352.412 212.624 351.826 212.757 351.162 212.757C350.511 212.757 349.945 212.634 349.463 212.386C348.981 212.132 348.574 211.774 348.242 211.312C347.91 210.85 347.643 210.313 347.441 209.701C347.246 209.082 347.1 208.408 347.002 207.679V207.025C347.1 206.25 347.246 205.547 347.441 204.916C347.643 204.278 347.91 203.727 348.242 203.265C348.574 202.796 348.978 202.435 349.453 202.181C349.935 201.927 350.498 201.8 351.143 201.8C351.813 201.8 352.402 201.927 352.91 202.181C353.424 202.435 353.857 202.8 354.209 203.275C354.561 203.75 354.824 204.317 355 204.974C355.176 205.632 355.264 206.364 355.264 207.171ZM352.676 207.376V207.171C352.676 206.703 352.633 206.27 352.549 205.873C352.464 205.469 352.334 205.117 352.158 204.818C351.982 204.512 351.755 204.274 351.475 204.105C351.195 203.936 350.856 203.851 350.459 203.851C350.062 203.851 349.72 203.916 349.434 204.046C349.147 204.177 348.913 204.362 348.73 204.603C348.548 204.844 348.405 205.13 348.301 205.462C348.203 205.788 348.138 206.149 348.105 206.546V208.167C348.164 208.649 348.278 209.082 348.447 209.466C348.617 209.85 348.864 210.156 349.189 210.384C349.521 210.612 349.951 210.726 350.479 210.726C350.876 210.726 351.214 210.638 351.494 210.462C351.774 210.287 352.002 210.046 352.178 209.74C352.354 209.427 352.48 209.069 352.559 208.666C352.637 208.262 352.676 207.832 352.676 207.376ZM359.727 204.027V216.625H357.139V201.996H359.531L359.727 204.027ZM366.514 207.171V207.376C366.514 208.145 366.423 208.858 366.24 209.515C366.064 210.166 365.804 210.736 365.459 211.224C365.114 211.706 364.684 212.083 364.17 212.357C363.662 212.624 363.076 212.757 362.412 212.757C361.761 212.757 361.195 212.634 360.713 212.386C360.231 212.132 359.824 211.774 359.492 211.312C359.16 210.85 358.893 210.313 358.691 209.701C358.496 209.082 358.35 208.408 358.252 207.679V207.025C358.35 206.25 358.496 205.547 358.691 204.916C358.893 204.278 359.16 203.727 359.492 203.265C359.824 202.796 360.228 202.435 360.703 202.181C361.185 201.927 361.748 201.8 362.393 201.8C363.063 201.8 363.652 201.927 364.16 202.181C364.674 202.435 365.107 202.8 365.459 203.275C365.811 203.75 366.074 204.317 366.25 204.974C366.426 205.632 366.514 206.364 366.514 207.171ZM363.926 207.376V207.171C363.926 206.703 363.883 206.27 363.799 205.873C363.714 205.469 363.584 205.117 363.408 204.818C363.232 204.512 363.005 204.274 362.725 204.105C362.445 203.936 362.106 203.851 361.709 203.851C361.312 203.851 360.97 203.916 360.684 204.046C360.397 204.177 360.163 204.362 359.98 204.603C359.798 204.844 359.655 205.13 359.551 205.462C359.453 205.788 359.388 206.149 359.355 206.546V208.167C359.414 208.649 359.528 209.082 359.697 209.466C359.867 209.85 360.114 210.156 360.439 210.384C360.771 210.612 361.201 210.726 361.729 210.726C362.126 210.726 362.464 210.638 362.744 210.462C363.024 210.287 363.252 210.046 363.428 209.74C363.604 209.427 363.73 209.069 363.809 208.666C363.887 208.262 363.926 207.832 363.926 207.376ZM371.133 197.562V212.562H368.545V197.562H371.133ZM376.328 201.996V212.562H373.74V201.996H376.328ZM373.564 199.232C373.564 198.848 373.695 198.529 373.955 198.275C374.222 198.021 374.58 197.894 375.029 197.894C375.479 197.894 375.833 198.021 376.094 198.275C376.361 198.529 376.494 198.848 376.494 199.232C376.494 199.61 376.361 199.925 376.094 200.179C375.833 200.433 375.479 200.56 375.029 200.56C374.58 200.56 374.222 200.433 373.955 200.179C373.695 199.925 373.564 199.61 373.564 199.232ZM383.125 210.726C383.49 210.726 383.815 210.654 384.102 210.511C384.388 210.368 384.616 210.166 384.785 209.906C384.961 209.645 385.055 209.343 385.068 208.998H387.5C387.487 209.714 387.285 210.355 386.895 210.921C386.504 211.488 385.983 211.937 385.332 212.269C384.688 212.595 383.965 212.757 383.164 212.757C382.35 212.757 381.641 212.621 381.035 212.347C380.43 212.074 379.925 211.693 379.521 211.205C379.124 210.716 378.825 210.15 378.623 209.505C378.428 208.861 378.33 208.171 378.33 207.435V207.123C378.33 206.387 378.428 205.697 378.623 205.052C378.825 204.408 379.124 203.841 379.521 203.353C379.925 202.865 380.43 202.484 381.035 202.21C381.641 201.937 382.347 201.8 383.154 201.8C384.007 201.8 384.756 201.966 385.4 202.298C386.051 202.63 386.559 203.099 386.924 203.705C387.295 204.31 387.487 205.023 387.5 205.843H385.068C385.055 205.466 384.971 205.127 384.814 204.828C384.658 204.528 384.437 204.287 384.15 204.105C383.864 203.923 383.516 203.832 383.105 203.832C382.669 203.832 382.305 203.923 382.012 204.105C381.725 204.287 381.501 204.538 381.338 204.857C381.182 205.169 381.071 205.521 381.006 205.912C380.947 206.296 380.918 206.699 380.918 207.123V207.435C380.918 207.865 380.947 208.275 381.006 208.666C381.071 209.056 381.182 209.408 381.338 209.72C381.501 210.026 381.725 210.27 382.012 210.453C382.305 210.635 382.676 210.726 383.125 210.726ZM395.039 210.316V205.443C395.039 205.085 394.977 204.776 394.854 204.515C394.73 204.255 394.541 204.053 394.287 203.91C394.033 203.766 393.711 203.695 393.32 203.695C392.975 203.695 392.673 203.753 392.412 203.871C392.158 203.988 391.963 204.154 391.826 204.369C391.689 204.577 391.621 204.818 391.621 205.091H389.033C389.033 204.655 389.137 204.242 389.346 203.851C389.554 203.454 389.85 203.102 390.234 202.796C390.625 202.484 391.09 202.24 391.631 202.064C392.178 201.888 392.79 201.8 393.467 201.8C394.268 201.8 394.98 201.937 395.605 202.21C396.237 202.477 396.732 202.881 397.09 203.421C397.454 203.962 397.637 204.642 397.637 205.462V210.072C397.637 210.599 397.669 211.052 397.734 211.429C397.806 211.8 397.91 212.123 398.047 212.396V212.562H395.42C395.296 212.295 395.202 211.957 395.137 211.546C395.072 211.13 395.039 210.72 395.039 210.316ZM395.4 206.126L395.42 207.66H393.789C393.385 207.66 393.031 207.702 392.725 207.787C392.419 207.865 392.168 207.982 391.973 208.138C391.777 208.288 391.631 208.47 391.533 208.685C391.436 208.893 391.387 209.131 391.387 209.398C391.387 209.658 391.445 209.893 391.562 210.101C391.686 210.309 391.862 210.475 392.09 210.599C392.324 210.716 392.598 210.775 392.91 210.775C393.366 210.775 393.763 210.684 394.102 210.501C394.44 210.313 394.704 210.085 394.893 209.818C395.081 209.551 395.182 209.297 395.195 209.056L395.938 210.169C395.846 210.436 395.71 210.72 395.527 211.019C395.345 211.319 395.111 211.598 394.824 211.859C394.538 212.119 394.193 212.334 393.789 212.503C393.385 212.673 392.917 212.757 392.383 212.757C391.699 212.757 391.087 212.621 390.547 212.347C390.007 212.074 389.58 211.699 389.268 211.224C388.955 210.749 388.799 210.208 388.799 209.603C388.799 209.043 388.903 208.548 389.111 208.119C389.32 207.689 389.629 207.328 390.039 207.035C390.449 206.735 390.957 206.511 391.562 206.361C392.174 206.205 392.874 206.126 393.662 206.126H395.4ZM404.961 201.996V203.851H398.906V201.996H404.961ZM400.527 199.398H403.115V209.515C403.115 209.828 403.158 210.069 403.242 210.238C403.327 210.407 403.454 210.521 403.623 210.58C403.792 210.638 403.994 210.667 404.229 210.667C404.398 210.667 404.554 210.658 404.697 210.638C404.84 210.619 404.961 210.599 405.059 210.58L405.068 212.513C404.854 212.585 404.609 212.643 404.336 212.689C404.069 212.735 403.766 212.757 403.428 212.757C402.848 212.757 402.34 212.66 401.904 212.464C401.468 212.263 401.13 211.94 400.889 211.498C400.648 211.048 400.527 210.456 400.527 209.72V199.398ZM409.414 201.996V212.562H406.826V201.996H409.414ZM406.65 199.232C406.65 198.848 406.781 198.529 407.041 198.275C407.308 198.021 407.666 197.894 408.115 197.894C408.564 197.894 408.919 198.021 409.18 198.275C409.447 198.529 409.58 198.848 409.58 199.232C409.58 199.61 409.447 199.925 409.18 200.179C408.919 200.433 408.564 200.56 408.115 200.56C407.666 200.56 407.308 200.433 407.041 200.179C406.781 199.925 406.65 199.61 406.65 199.232ZM411.416 207.386V207.181C411.416 206.406 411.527 205.694 411.748 205.042C411.969 204.385 412.292 203.815 412.715 203.333C413.138 202.852 413.656 202.477 414.268 202.21C414.88 201.937 415.576 201.8 416.357 201.8C417.152 201.8 417.855 201.937 418.467 202.21C419.085 202.477 419.606 202.852 420.029 203.333C420.452 203.815 420.775 204.385 420.996 205.042C421.217 205.694 421.328 206.406 421.328 207.181V207.386C421.328 208.154 421.217 208.867 420.996 209.525C420.775 210.176 420.452 210.746 420.029 211.234C419.606 211.716 419.089 212.09 418.477 212.357C417.865 212.624 417.165 212.757 416.377 212.757C415.596 212.757 414.896 212.624 414.277 212.357C413.659 212.09 413.138 211.716 412.715 211.234C412.292 210.746 411.969 210.176 411.748 209.525C411.527 208.867 411.416 208.154 411.416 207.386ZM413.994 207.181V207.386C413.994 207.848 414.04 208.281 414.131 208.685C414.222 209.089 414.362 209.444 414.551 209.75C414.74 210.056 414.984 210.296 415.283 210.472C415.589 210.641 415.954 210.726 416.377 210.726C416.794 210.726 417.152 210.641 417.451 210.472C417.751 210.296 417.995 210.056 418.184 209.75C418.379 209.444 418.522 209.089 418.613 208.685C418.704 208.281 418.75 207.848 418.75 207.386V207.181C418.75 206.725 418.704 206.299 418.613 205.902C418.522 205.498 418.379 205.143 418.184 204.837C417.995 204.525 417.747 204.281 417.441 204.105C417.142 203.923 416.781 203.832 416.357 203.832C415.941 203.832 415.583 203.923 415.283 204.105C414.984 204.281 414.74 204.525 414.551 204.837C414.362 205.143 414.222 205.498 414.131 205.902C414.04 206.299 413.994 206.725 413.994 207.181ZM425.732 204.251V212.562H423.154V201.996H425.576L425.732 204.251ZM425.322 206.898H424.561C424.567 206.13 424.671 205.433 424.873 204.808C425.075 204.183 425.358 203.646 425.723 203.197C426.094 202.748 426.533 202.403 427.041 202.162C427.549 201.921 428.115 201.8 428.74 201.8C429.248 201.8 429.707 201.872 430.117 202.015C430.527 202.158 430.879 202.386 431.172 202.699C431.471 203.011 431.699 203.421 431.855 203.929C432.018 204.431 432.1 205.049 432.1 205.785V212.562H429.502V205.765C429.502 205.283 429.43 204.903 429.287 204.623C429.15 204.343 428.949 204.144 428.682 204.027C428.421 203.91 428.099 203.851 427.715 203.851C427.318 203.851 426.969 203.932 426.67 204.095C426.377 204.251 426.13 204.47 425.928 204.75C425.732 205.029 425.583 205.352 425.479 205.716C425.374 206.081 425.322 206.475 425.322 206.898ZM440.186 209.671C440.186 209.45 440.127 209.251 440.01 209.076C439.893 208.9 439.671 208.74 439.346 208.597C439.027 208.447 438.558 208.307 437.939 208.177C437.393 208.06 436.888 207.914 436.426 207.738C435.964 207.562 435.566 207.35 435.234 207.103C434.902 206.849 434.642 206.553 434.453 206.214C434.271 205.869 434.18 205.472 434.18 205.023C434.18 204.587 434.274 204.177 434.463 203.792C434.652 203.402 434.925 203.06 435.283 202.767C435.641 202.468 436.077 202.233 436.592 202.064C437.106 201.888 437.686 201.8 438.33 201.8C439.229 201.8 440 201.947 440.645 202.24C441.296 202.533 441.794 202.936 442.139 203.451C442.484 203.958 442.656 204.531 442.656 205.169H440.078C440.078 204.889 440.013 204.636 439.883 204.408C439.759 204.18 439.567 203.998 439.307 203.861C439.046 203.718 438.717 203.646 438.32 203.646C437.962 203.646 437.66 203.705 437.412 203.822C437.171 203.939 436.989 204.092 436.865 204.281C436.742 204.47 436.68 204.678 436.68 204.906C436.68 205.075 436.712 205.228 436.777 205.365C436.849 205.495 436.963 205.615 437.119 205.726C437.275 205.837 437.487 205.938 437.754 206.029C438.027 206.12 438.363 206.208 438.76 206.292C439.548 206.449 440.234 206.657 440.82 206.917C441.413 207.171 441.875 207.51 442.207 207.933C442.539 208.356 442.705 208.897 442.705 209.554C442.705 210.023 442.604 210.453 442.402 210.843C442.201 211.227 441.908 211.563 441.523 211.849C441.139 212.136 440.68 212.36 440.146 212.523C439.613 212.679 439.01 212.757 438.34 212.757C437.37 212.757 436.549 212.585 435.879 212.24C435.208 211.888 434.701 211.445 434.355 210.912C434.01 210.371 433.838 209.811 433.838 209.232H436.309C436.328 209.642 436.439 209.971 436.641 210.218C436.842 210.466 437.096 210.645 437.402 210.755C437.715 210.86 438.044 210.912 438.389 210.912C438.779 210.912 439.108 210.86 439.375 210.755C439.642 210.645 439.844 210.498 439.98 210.316C440.117 210.127 440.186 209.912 440.186 209.671Z" fill="white"/>
<defs>
<linearGradient id="paint0_linear_161_17" x1="107.301" y1="35.808" x2="608.121" y2="268.868" gradientUnits="userSpaceOnUse">
<stop stop-color="#C084FC"/>
<stop offset="1" stop-color="#7857FF"/>
</linearGradient>
<linearGradient id="paint1_linear_161_17" x1="332.485" y1="126.095" x2="232.45" y2="114.587" gradientUnits="userSpaceOnUse">
<stop stop-color="#C084FC"/>
<stop offset="1" stop-color="#7857FF"/>
</linearGradient>
</defs>
</svg>
